<svg xmlns="http://www.w3.org/2000/svg" viewBox="406.672 282 378.578 607.035"><path fill="#ED6F4A" d="m704 282 2 1c.781 2.738.781 2.738 1.5 6.313l.77 3.808c.994 5.28 1.903 10.57 2.73 15.879 8.887-3.136 15.588-10.344 21.992-17.02 1.91-1.883 3.774-3.498 6.008-4.98h2c.285 6.35-.693 11.598-2.437 17.688q-.688 2.474-1.372 4.949l-.641 2.314c-1.321 4.924-2.468 9.962-1.55 15.049 2.351 3.023 4.542 4.725 7.813 6.688L745 335v2l2.563.75c3.821 1.39 6.956 3.161 10.437 5.25v2h3v2l1.75.625c2.378 1.453 3.891 2.922 5.383 5.281 1.562 3.773 1.79 7.825 2.324 11.848 1.146 6.85 4.038 11.776 8.293 17.183l1.86 2.215L782 386v2h2c1 2 1 2 1.25 5.063-.407 6.409-2.35 11.717-5.687 17.187-3.634 5.45-6.882 9.319-12.563 12.75-3.402 1.23-3.402 1.23-6.937 2.188l-3.528.98C753 427 753 427 749.297 427.523c-3.991.577-6.693 1.71-10.297 3.477l-2 2c-1.28 6.206.125 12.054 2.004 17.963 2.215 6.923 2.215 6.923 5.448 13.393 2.683 4.582 4.167 9.634 5.882 14.642a748 748 0 0 0 1.994 5.707c4.16 12.06 7.029 23.83 7.422 36.608l.129 2.818c.195 4.933.195 4.933.121 6.869l-1 1c-.11 1.644-.187 3.29-.25 4.938-1.539 18.293-9.67 34.343-17.236 50.767a505 505 0 0 0-5.639 12.67l-1.508 3.46c-4.43 12.193-5.307 25.725-6.554 38.54l-.266 2.674c-1.187 12.11-1.866 24.034-1.625 36.209.152 8.33-.079 16.652-.291 24.978q-.1 3.997-.188 7.995l-.127 4.921-.05 2.313c-.151 5.306-.151 5.306-1.266 7.535h2l-.07 3.156c-.407 21.102-.407 21.102 6.07 40.844 4.165 4.85 9.057 7.56 14.56 10.605 4.019 2.302 6.881 4.407 9.44 8.395 1.064 3.043 1.283 5.792 1 9-1.562 3.313-1.562 3.313-2.957 4.73-3.832 2.382-8.186 3.243-12.527 4.329a48 48 0 0 0-8.516 3.129c-7.086 3.303-14.285 3.209-22 2.812-5.705-.774-11.27-2.698-16-6-7.813-7.186-10.692-17.745-13.82-27.578-1.784-5.795-3.488-11.614-5.188-17.434-5.451-18.622-11.19-37.135-17.304-55.55l-.983-2.985q-1.366-4.139-2.756-8.27l-.818-2.486c-.654-1.919-1.385-3.812-2.131-5.697l-2-1-.367 3.742c-.444 4.508-.901 9.015-1.36 13.522-.247 2.479-.48 4.958-.71 7.44-1.243 12.91-3.808 25.239-7.38 37.706l-.964 3.367a630 630 0 0 1-1.933 6.546C635.6 767.085 634.497 771.99 635 778c1.156 2.462 1.156 2.462 3 4 4.316 1.439 8.473.668 12.932.229 4.553-.371 7.876-.048 12.068 1.771 3.678 2.055 6.885 4.454 9.363 7.89 2.495 4.61 3.551 8.877 3.637 14.11-1.25 2.875-1.25 2.875-3 5-3 2-3 2-6.262 2.278q-2.058.036-4.116.04l-2.284.031c-2.515.031-5.03.048-7.545.065l-5.334.06c-4.77.052-9.54.091-14.311.128q-5.905.047-11.81.104-14.637.134-29.275.235-8.614.06-17.23.146-9.545.094-19.091.143-3.332.02-6.665.054c-21.305.207-21.305.207-31.077-3.284l-2.31-.81a139 139 0 0 1-5.94-2.378l-2.004-.826A665 665 0 0 1 503 805v-2l-2.062-.25C498 802 498 802 494.813 799.875c-2.216-1.327-3.569-1.864-6.168-1.984-2.587.24-5.093.628-7.645 1.109l-2.219.352c-7.583 1.4-15.246 4.18-21.578 8.601L455 810c-1.172 3.368-1.172 3.368-1 7 .684 3.129.684 3.129 3 6 11.245 11.063 26.29 16.291 41 21l2.06.68c14.309 4.661 29.042 6.52 43.94 8.32l2.923.364c32.8 3.965 67.572 3.865 98.597-8.414 5.202-1.996 8.972-2.763 14.48-1.95 3.184 1.315 4.629 2.552 6.813 5.188 1.25 2.96 1.733 5.468 1.605 8.69-.785 3.984-2.9 7.003-5.418 10.122-2.187 2.125-2.187 2.125-5 4l-2.082 1.395c-19.941 12.725-44.972 15.27-68.125 16.449-8.73.36-17.384.18-26.106-.282l-2.245-.118a166 166 0 0 1-12.202-1.16c-2.677-.34-5.357-.618-8.04-.897-12.458-1.322-24.653-2.951-36.847-5.837a486 486 0 0 0-7.486-1.671C476.34 874.769 458.911 868.609 442 860v-2l-2.598-.738c-8.01-2.97-16.09-9.134-21.914-15.39-4.872-6.126-9.006-13.121-10.488-20.872-.784-7.597-.267-14.259 2.695-21.328 6.352-13.008 15.945-23.154 27.743-31.422A586 586 0 0 1 444 764q1.932-1.274 3.86-2.55 1.912-1.259 3.827-2.513l1.82-1.196c1.476-.95 2.982-1.85 4.493-2.741h2c.492-1.746.968-3.497 1.438-5.25l.808-2.953c1.84-9.268 1.93-18.82 2.184-28.242a14159 14159 0 0 1 .328-10.88c1.864-60.523 1.864-60.523 8.242-88.675q.469-2.206.934-4.414c3.625-16.738 8.927-34.22 16.925-49.39a158 158 0 0 0 2.594-5.266c9.129-19.068 22.092-38.167 39.422-50.617A291 291 0 0 1 538 506l2.734-1.773c9.375-5.803 19.375-9.368 29.832-12.688 14.154-4.502 25.79-9.766 36.434-20.539l2.043-1.977c13.069-13.512 21.471-32.875 26.112-50.886 1.27-5.242 2.331-10.52 3.345-15.817l.393-2.053a908 908 0 0 0 1.877-10.154c1.466-7.982 3.42-15.499 6.23-23.113l1.238-3.41c5.103-12.6 12.492-22.674 22.324-32.027 7.282-7.655 12.444-16.794 17.777-25.84C693.19 297.55 698.502 289.75 704 282m-46.191 199.117c-4.81 3.816-7.508 8.248-9.786 13.895-3.723 10.872-4.814 21.903-5.79 33.281-.23 2.673-.478 5.344-.73 8.016-.999 10.804-1.772 21.612-2.44 32.441a1522 1522 0 0 1-2.563 34.688l-.181 2.17c-3.136 37.333-3.136 37.333-8.948 45.751L626 653c-2.371-.25-2.371-.25-5-1-6.177-8.525-7.762-23.707-8.89-34.04a816 816 0 0 1-.892-9.656c-1.386-28.63-1.386-28.63-10.218-55.304-2.348-3.003-4.621-5.21-8-7-2.324-.544-3.742-.518-6.055.063-3.169 1.527-5.165 3.41-7.347 6.16-3.342 5.808-4.813 12.361-6.598 18.777-2.452 7.452-2.452 7.452-5 10-2.79-.043-2.79-.043-6-1-2.71-2.363-2.71-2.363-5.375-5.312-4.233-4.481-7.75-7.632-13.625-9.688-3.543-.667-3.543-.667-7 0-2.669 1.092-4.598 2.319-7 4l-1 3 1.906-.105 2.594-.082 2.531-.106c4.053.4 7.446 1.193 10.969 3.293 2.264 2.421 3.928 5.1 5.625 7.938 2.527 4.128 4.644 7.477 8.457 10.53 2.602 1.366 4.093 2.1 6.98 2.095 3.987-.24 3.987-.24 6.688-2.688 4.477-5.721 7.05-10.603 8.875-17.562C584.76 567.36 584.76 567.36 587 564c2.496.337 4.458.62 6.543 2.082 2.144 2.823 2.732 5.891 3.457 9.293l.514 2.365c1.963 9.699 2.762 19.535 3.709 29.373 1.232 30.521 1.232 30.521 10.445 58.535 2.724 3.31 5.302 5.768 9.332 7.352 4.107-.092 4.107-.092 8-1 4.065-2.716 6.279-5.515 8.563-9.812 2.974-6.1 4.433-12.09 5.527-18.766l.511-3.04c1.57-9.736 2.47-19.487 3.182-29.317.225-3.113.464-6.224.707-9.336q.51-6.555 1.006-13.114c.74-9.75 1.52-19.496 2.318-29.241.24-2.953.472-5.907.704-8.86 3.19-39.717 3.19-39.717 7.482-49.514 1.465-1.77 1.465-1.77 3-3 2.063 0 2.063 0 4 1 2.59 4.777 2.8 10.196 3.402 15.504l.374 3.13c.394 3.31.778 6.619 1.162 9.928 2.14 18.35 2.14 18.35 4.609 36.657l.339 2.442c.903 6.055 2.418 11.348 6.114 16.339 1.944 2.414 3.218 3.341 6 5 3.103 1.02 5.748 1.36 9 1 7.36-2.786 12.766-9.43 17.922-15.121 2.353-2.128 4.029-3.015 7.078-3.879 3.332-.195 3.332-.195 6.813-.125l3.519.055L735 570c-.231-1.919-.231-1.919-1-4-3.324-2.935-7.403-4.74-11.437-6.5-4.059-.57-6.45-.13-10.235 1.313-3.414 1.74-6.235 4.029-9.176 6.468-2.883 2.303-5.9 3.989-9.152 5.719-2.25-.875-2.25-.875-5-3-5.4-9.554-6.174-21.088-7-31.82l-.5-6.059q-.377-4.696-.75-9.393a3536 3536 0 0 0-.75-9.173l-.215-2.804c-.64-7.706-1.62-15.19-5.222-22.126l-1.247-2.46c-1.292-2.126-2.377-3.614-4.316-5.165-3.888-1.488-7.43-1.8-11.191.117"/></svg>